<?xml version="1.0" encoding="UTF-8"?>
<svg width="182px" height="49px" viewBox="0 0 182 49" version="1.1" xmlns="http://www.w3.org/2000/svg" xmlns:xlink="http://www.w3.org/1999/xlink">
    <!-- Generator: Sketch 53.2 (72643) - https://sketchapp.com -->
    <title>Logo</title>
    <desc>Created with Sketch.</desc>
    <g id="Logo--Page-1" stroke="none" stroke-width="1" fill="none" fill-rule="evenodd">
        <g id="Logo--refine-bio-logo-inverted-copy" transform="translate(-12.000000, -11.000000)">
            <g id="Logo--Logo" transform="translate(11.000000, 11.000000)">
                <g id="Logo--Group" transform="translate(30.000000, 14.000000)" fill="#FDFDFD">
                    <path d="M0,15.0434322 L0,5.38559322 L0.932511556,5.38559322 C1.109263,5.38559322 1.23115871,5.4205505 1.29820236,5.4904661 C1.36524601,5.56038171 1.41095691,5.68114321 1.43533641,5.85275424 L1.54504366,7.35911017 C1.86197727,6.68537799 2.25356726,6.15942986 2.71982537,5.78125 C3.18608348,5.40307014 3.73309051,5.21398305 4.36086287,5.21398305 C4.61684771,5.21398305 4.84844957,5.24417343 5.0556754,5.30455508 C5.26290122,5.36493674 5.45488698,5.449152 5.63163842,5.55720339 L5.4213662,6.82521186 C5.37870206,6.98411096 5.28423288,7.06355932 5.13795583,7.06355932 C5.05262755,7.06355932 4.92158965,7.03336895 4.74483821,6.97298729 C4.56808677,6.91260563 4.32124795,6.88241525 4.00431433,6.88241525 C3.43749075,6.88241525 2.96362115,7.05402371 2.58269132,7.39724576 C2.20176149,7.74046782 1.88330893,8.23940351 1.62732409,8.8940678 L1.62732409,15.0434322 L0,15.0434322 Z M11.0347201,5.23305085 C11.5893539,5.23305085 12.1013159,5.32997784 12.5706215,5.52383475 C13.039927,5.71769165 13.4452303,5.99734987 13.7865434,6.3628178 C14.1278565,6.72828573 14.3945034,7.1795524 14.586492,7.71663136 C14.7784807,8.25371031 14.8744735,8.86546267 14.8744735,9.55190678 C14.8744735,9.81885727 14.847047,9.99682159 14.7921931,10.0858051 C14.7373392,10.1747886 14.6337279,10.2192797 14.4813559,10.2192797 L8.31946584,10.2192797 C8.3316556,10.8294522 8.41088782,11.3601672 8.55716487,11.8114407 C8.70344192,12.2627141 8.90456986,12.6392993 9.1605547,12.9412076 C9.41653954,13.2431159 9.72127884,13.4687493 10.0747817,13.6181144 C10.4282846,13.7674796 10.8244457,13.842161 11.2632768,13.842161 C11.6716336,13.842161 12.0236075,13.792903 12.319209,13.6943856 C12.6148106,13.5958682 12.8692679,13.4894074 13.0825886,13.375 C13.2959093,13.2605926 13.4741818,13.1541318 13.6174114,13.0556144 C13.760641,12.957097 13.8840604,12.907839 13.9876733,12.907839 C14.1217606,12.907839 14.225372,12.9618639 14.2985105,13.0699153 L14.755624,13.6896186 C14.5544931,13.9438572 14.313749,14.1647236 14.0333847,14.3522246 C13.7530203,14.5397255 13.4528521,14.6938553 13.1328711,14.8146186 C12.81289,14.935382 12.4822479,15.0259531 12.1409348,15.0863347 C11.7996216,15.1467164 11.461361,15.1769068 11.1261428,15.1769068 C10.4861807,15.1769068 9.89651014,15.0640901 9.35711351,14.8384534 C8.81771687,14.6128167 8.35146576,14.2823115 7.95834617,13.846928 C7.56522659,13.4115444 7.2589636,12.8728846 7.03954802,12.2309322 C6.82013244,11.5889798 6.7104263,10.8516991 6.7104263,10.0190678 C6.7104263,9.34533561 6.80946657,8.71610462 7.00755008,8.13135593 C7.20563359,7.54660725 7.49056482,7.03972672 7.86235234,6.61069915 C8.23413985,6.18167158 8.68820139,5.84481055 9.22455059,5.60010593 C9.76089979,5.35540132 10.3642836,5.23305085 11.0347201,5.23305085 Z M11.0712892,6.48199153 C10.28505,6.48199153 9.66642924,6.71874763 9.21540832,7.19226695 C8.7643874,7.66578627 8.48402726,8.3220297 8.37431947,9.16101695 L13.4117103,9.16101695 C13.4117103,8.76694718 13.3599046,8.40625164 13.2562917,8.07891949 C13.1526788,7.75158735 13.0003092,7.46875119 12.7991782,7.23040254 C12.5980473,6.99205389 12.3527321,6.8077337 12.0632255,6.67743644 C11.7737188,6.54713918 11.4430767,6.48199153 11.0712892,6.48199153 Z M17.3154597,15.0434322 L17.3154597,6.83474576 L16.2915254,6.71080508 C16.163533,6.67902526 16.0583979,6.62976728 15.9761171,6.56302966 C15.8938363,6.49629204 15.8526965,6.39936504 15.8526965,6.27224576 L15.8526965,5.57627119 L17.3154597,5.57627119 L17.3154597,5.04237288 C17.3154597,4.45126823 17.4038341,3.90943043 17.5805855,3.41684322 C17.757337,2.92425601 18.0224601,2.50000178 18.375963,2.1440678 C18.7294659,1.78813381 19.1698142,1.51165353 19.6970211,1.31461864 C20.2242279,1.11758376 20.8382776,1.0190678 21.5391885,1.0190678 C21.7707938,1.0190678 22.0069668,1.03495747 22.2477144,1.06673729 C22.4884621,1.09851711 22.6972085,1.14618612 22.8739599,1.20974576 L22.8191063,2.09639831 C22.8069166,2.17902584 22.7703478,2.23146175 22.7093991,2.25370763 C22.6484503,2.2759535 22.5600759,2.28707627 22.4442732,2.28707627 C22.3772296,2.28707627 22.3071396,2.2854873 22.234001,2.28230932 C22.1608625,2.27913134 22.0785829,2.27754237 21.9871597,2.27754237 C20.9083665,2.27754237 20.1236628,2.51112055 19.6330252,2.9782839 C19.1423875,3.44544725 18.8970724,4.1493597 18.8970724,5.09004237 L18.8970724,5.57627119 L24.4921418,5.57627119 L24.4921418,15.0434322 L22.8648177,15.0434322 L22.8648177,6.80614407 L18.951926,6.80614407 L18.951926,15.0434322 L17.3154597,15.0434322 Z M27.3719569,15.0434322 L27.3719569,5.38559322 L28.3410375,5.38559322 C28.5726428,5.38559322 28.7189177,5.50317679 28.7798665,5.73834746 L28.9078582,6.78707627 C29.3101201,6.3230909 29.7596106,5.94809465 30.2563431,5.66207627 C30.7530756,5.37605789 31.3275092,5.23305085 31.979661,5.23305085 C32.4855358,5.23305085 32.9319789,5.32044404 33.3190036,5.49523305 C33.7060283,5.67002206 34.0290519,5.91790094 34.2880842,6.23887712 C34.5471165,6.5598533 34.7436734,6.94597232 34.8777607,7.39724576 C35.011848,7.84851921 35.0788906,8.34745489 35.0788906,8.8940678 L35.0788906,15.0434322 L33.4515665,15.0434322 L33.4515665,8.8940678 C33.4515665,8.16313194 33.2915784,7.59587066 32.9715973,7.19226695 C32.6516163,6.78866324 32.1625097,6.58686441 31.504263,6.58686441 C31.0227677,6.58686441 30.5732772,6.70762591 30.1557781,6.94915254 C29.738279,7.19067917 29.3527838,7.51800641 28.9992809,7.93114407 L28.9992809,15.0434322 L27.3719569,15.0434322 Z M41.2042116,5.23305085 C41.7588454,5.23305085 42.2708074,5.32997784 42.740113,5.52383475 C43.2094185,5.71769165 43.6147218,5.99734987 43.9560349,6.3628178 C44.2973481,6.72828573 44.5639949,7.1795524 44.7559836,7.71663136 C44.9479722,8.25371031 45.0439651,8.86546267 45.0439651,9.55190678 C45.0439651,9.81885727 45.0165385,9.99682159 44.9616846,10.0858051 C44.9068307,10.1747886 44.8032194,10.2192797 44.6508475,10.2192797 L38.4889574,10.2192797 C38.5011471,10.8294522 38.5803793,11.3601672 38.7266564,11.8114407 C38.8729334,12.2627141 39.0740614,12.6392993 39.3300462,12.9412076 C39.5860311,13.2431159 39.8907704,13.4687493 40.2442732,13.6181144 C40.5977761,13.7674796 40.9939372,13.842161 41.4327684,13.842161 C41.8411251,13.842161 42.193099,13.792903 42.4887006,13.6943856 C42.7843021,13.5958682 43.0387594,13.4894074 43.2520801,13.375 C43.4654008,13.2605926 43.6436733,13.1541318 43.7869029,13.0556144 C43.9301325,12.957097 44.053552,12.907839 44.1571649,12.907839 C44.2912522,12.907839 44.3948635,12.9618639 44.4680021,13.0699153 L44.9251156,13.6896186 C44.7239846,13.9438572 44.4832406,14.1647236 44.2028762,14.3522246 C43.9225119,14.5397255 43.6223437,14.6938553 43.3023626,14.8146186 C42.9823816,14.935382 42.6517394,15.0259531 42.3104263,15.0863347 C41.9691132,15.1467164 41.6308526,15.1769068 41.2956343,15.1769068 C40.6556722,15.1769068 40.0660017,15.0640901 39.526605,14.8384534 C38.9872084,14.6128167 38.5209573,14.2823115 38.1278377,13.846928 C37.7347181,13.4115444 37.4284551,12.8728846 37.2090395,12.2309322 C36.989624,11.5889798 36.8799178,10.8516991 36.8799178,10.0190678 C36.8799178,9.34533561 36.9789581,8.71610462 37.1770416,8.13135593 C37.3751251,7.54660725 37.6600564,7.03972672 38.0318439,6.61069915 C38.4036314,6.18167158 38.8576929,5.84481055 39.3940421,5.60010593 C39.9303913,5.35540132 40.5337751,5.23305085 41.2042116,5.23305085 Z M41.2407807,6.48199153 C40.4545415,6.48199153 39.8359208,6.71874763 39.3848998,7.19226695 C38.9338789,7.66578627 38.6535188,8.3220297 38.543811,9.16101695 L43.5812018,9.16101695 C43.5812018,8.76694718 43.5293962,8.40625164 43.4257833,8.07891949 C43.3221703,7.75158735 43.1698007,7.46875119 42.9686697,7.23040254 C42.7675388,6.99205389 42.5222237,6.8077337 42.232717,6.67743644 C41.9432103,6.54713918 41.6125682,6.48199153 41.2407807,6.48199153 Z M46.5890087,13.9947034 C46.5890087,13.8294483 46.617959,13.6737295 46.6758603,13.5275424 C46.7337616,13.3813552 46.8129938,13.2542378 46.9135593,13.1461864 C47.0141248,13.0381351 47.1344968,12.9523308 47.274679,12.8887712 C47.4148612,12.8252115 47.5641834,12.7934322 47.7226502,12.7934322 C47.881117,12.7934322 48.0304393,12.8252115 48.1706215,12.8887712 C48.3108036,12.9523308 48.4326994,13.0381351 48.5363123,13.1461864 C48.6399252,13.2542378 48.7206811,13.3813552 48.7785824,13.5275424 C48.8364838,13.6737295 48.865434,13.8294483 48.865434,13.9947034 C48.865434,14.1663144 48.8364838,14.3236222 48.7785824,14.4666314 C48.7206811,14.6096405 48.6399252,14.735169 48.5363123,14.8432203 C48.4326994,14.9512717 48.3108036,15.035487 48.1706215,15.0958686 C48.0304393,15.1562503 47.881117,15.1864407 47.7226502,15.1864407 C47.5641834,15.1864407 47.4148612,15.1562503 47.274679,15.0958686 C47.1344968,15.035487 47.0141248,14.9512717 46.9135593,14.8432203 C46.8129938,14.735169 46.7337616,14.6096405 46.6758603,14.4666314 C46.617959,14.3236222 46.5890087,14.1663144 46.5890087,13.9947034 Z M51.0504366,15.0434322 L51.0504366,1 L52.6869029,1 L52.6869029,6.77754237 C53.0708802,6.313557 53.5112285,5.94014972 54.007961,5.65730932 C54.5046935,5.37446892 55.0730322,5.23305085 55.7129944,5.23305085 C56.2493435,5.23305085 56.733879,5.33792268 57.1666153,5.54766949 C57.5993516,5.7574163 57.9680861,6.07044283 58.27283,6.48675847 C58.5775739,6.90307412 58.8122231,7.41789948 58.9767848,8.03125 C59.1413465,8.64460052 59.2236261,9.35169091 59.2236261,10.1525424 C59.2236261,10.8644103 59.1322043,11.5270096 58.949358,12.1403602 C58.7665117,12.7537107 58.5029122,13.2844257 58.1585516,13.7325212 C57.8141911,14.1806166 57.3936508,14.5333674 56.8969183,14.7907839 C56.4001858,15.0482004 55.8409892,15.1769068 55.2193118,15.1769068 C54.6220138,15.1769068 54.1146229,15.0561453 53.6971238,14.8146186 C53.2796247,14.573092 52.9154612,14.236231 52.6046225,13.8040254 L52.5223421,14.6811441 C52.473583,14.9226707 52.333403,15.0434322 52.1017976,15.0434322 L51.0504366,15.0434322 Z M55.1827427,6.58686441 C54.6524884,6.58686441 54.1877609,6.71398178 53.7885465,6.96822034 C53.389332,7.2224589 53.0221212,7.58156548 52.6869029,8.04555085 L52.6869029,12.717161 C52.979457,13.1366546 53.3040044,13.4322025 53.6605547,13.6038136 C54.017105,13.7754246 54.4147898,13.8612288 54.853621,13.8612288 C55.7190935,13.8612288 56.3834252,13.5402574 56.8466359,12.8983051 C57.3098465,12.2563527 57.5414484,11.3411076 57.5414484,10.1525424 C57.5414484,9.52330194 57.488119,8.9830531 57.3814587,8.53177966 C57.2747983,8.08050622 57.120905,7.71027687 56.919774,7.42108051 C56.7186431,7.13188415 56.4718042,6.92055151 56.1792501,6.78707627 C55.886696,6.65360103 55.5545302,6.58686441 55.1827427,6.58686441 Z M63.0268105,5.38559322 L63.0268105,15.0434322 L61.3994864,15.0434322 L61.3994864,5.38559322 L63.0268105,5.38559322 Z M63.3925013,2.35381356 C63.3925013,2.51906862 63.3605037,2.67319844 63.2965074,2.81620763 C63.2325112,2.95921682 63.1471842,3.08633419 63.0405239,3.19756356 C62.9338635,3.30879293 62.8104441,3.39618612 62.6702619,3.45974576 C62.5300798,3.5233054 62.3807575,3.55508475 62.2222907,3.55508475 C62.0638239,3.55508475 61.9160253,3.5233054 61.7788906,3.45974576 C61.6417559,3.39618612 61.5198601,3.30879293 61.4131998,3.19756356 C61.3065394,3.08633419 61.2227361,2.95921682 61.1617874,2.81620763 C61.1008386,2.67319844 61.0703647,2.51906862 61.0703647,2.35381356 C61.0703647,2.1885585 61.1008386,2.03125075 61.1617874,1.88188559 C61.2227361,1.73252044 61.3065394,1.60222513 61.4131998,1.49099576 C61.5198601,1.37976639 61.6417559,1.2923732 61.7788906,1.22881356 C61.9160253,1.16525392 62.0638239,1.13347458 62.2222907,1.13347458 C62.3807575,1.13347458 62.5300798,1.16525392 62.6702619,1.22881356 C62.8104441,1.2923732 62.9338635,1.37976639 63.0405239,1.49099576 C63.1471842,1.60222513 63.2325112,1.73252044 63.2965074,1.88188559 C63.3605037,2.03125075 63.3925013,2.1885585 63.3925013,2.35381356 Z M69.6458141,5.23305085 C70.3223454,5.23305085 70.9333477,5.35063442 71.4788392,5.58580508 C72.0243308,5.82097575 72.4875345,6.15465886 72.8684643,6.58686441 C73.2493941,7.01906996 73.5419439,7.54184015 73.7461222,8.15519068 C73.9503006,8.7685412 74.0523883,9.45338605 74.0523883,10.2097458 C74.0523883,10.9724614 73.9503006,11.6588953 73.7461222,12.2690678 C73.5419439,12.8792403 73.2493941,13.4004216 72.8684643,13.8326271 C72.4875345,14.2648327 72.0243308,14.5969268 71.4788392,14.8289195 C70.9333477,15.0609122 70.3223454,15.1769068 69.6458141,15.1769068 C68.9692827,15.1769068 68.3582804,15.0609122 67.8127889,14.8289195 C67.2672974,14.5969268 66.80257,14.2648327 66.4185927,13.8326271 C66.0346154,13.4004216 65.7390183,12.8792403 65.5317925,12.2690678 C65.3245667,11.6588953 65.2209553,10.9724614 65.2209553,10.2097458 C65.2209553,9.45338605 65.3245667,8.7685412 65.5317925,8.15519068 C65.7390183,7.54184015 66.0346154,7.01906996 66.4185927,6.58686441 C66.80257,6.15465886 67.2672974,5.82097575 67.8127889,5.58580508 C68.3582804,5.35063442 68.9692827,5.23305085 69.6458141,5.23305085 Z M69.6458141,13.8516949 C70.5600457,13.8516949 71.2426617,13.5323125 71.6936826,12.8935381 C72.1447035,12.2547638 72.3702106,11.3633532 72.3702106,10.2192797 C72.3702106,9.06885018 72.1447035,8.1726727 71.6936826,7.53072034 C71.2426617,6.88876798 70.5600457,6.56779661 69.6458141,6.56779661 C69.1826034,6.56779661 68.7803475,6.6504229 68.4390344,6.81567797 C68.0977213,6.98093303 67.81279,7.2192781 67.5842322,7.53072034 C67.3556743,7.84216257 67.1850203,8.22510366 67.072265,8.67955508 C66.9595098,9.13400651 66.903133,9.6472429 66.903133,10.2192797 C66.903133,10.7913164 66.9595098,11.3029638 67.072265,11.7542373 C67.1850203,12.2055107 67.3556743,12.5852739 67.5842322,12.8935381 C67.81279,13.2018024 68.0977213,13.4385585 68.4390344,13.6038136 C68.7803475,13.7690686 69.1826034,13.8516949 69.6458141,13.8516949 Z" id="Logo--refine.bio"></path>
                    <path d="M86.22,6.77 C86.22,7.2100022 86.1300009,7.61499815 85.95,7.985 C85.7699991,8.35500185 85.4400024,8.68833185 84.96,8.985 C84.4799976,9.28166815 83.8200042,9.5399989 82.98,9.76 C82.1399958,9.9800011 81.0600066,10.156666 79.74,10.29 C79.7333333,10.3633337 79.73,10.4349997 79.73,10.505 L79.73,10.72 C79.73,11.6133378 79.924998,12.2949977 80.315,12.765 C80.7050019,13.2350024 81.2933294,13.47 82.08,13.47 C82.4000016,13.47 82.6849988,13.436667 82.935,13.37 C83.1850012,13.303333 83.4083323,13.2216672 83.605,13.125 C83.8016676,13.0283329 83.9749992,12.9216673 84.125,12.805 C84.2750008,12.6883328 84.4133327,12.5816672 84.54,12.485 C84.6666673,12.3883329 84.7833328,12.306667 84.89,12.24 C84.9966672,12.173333 85.1033328,12.14 85.21,12.14 C85.3300006,12.14 85.4399995,12.1966661 85.54,12.31 L85.98,12.86 C85.6399983,13.2133351 85.3083349,13.5149988 84.985,13.765 C84.661665,14.0150013 84.3300017,14.2233325 83.99,14.39 C83.6499983,14.5566675 83.2950019,14.678333 82.925,14.755 C82.5549981,14.8316671 82.1566688,14.87 81.73,14.87 C81.1499971,14.87 80.6300023,14.7733343 80.17,14.58 C79.7099977,14.3866657 79.3200016,14.1116685 79,13.755 C78.6799984,13.3983316 78.4333342,12.9666692 78.26,12.46 C78.0866658,11.9533308 78,11.3866698 78,10.76 C78,10.2399974 78.0549994,9.72166925 78.165,9.205 C78.2750005,8.68833075 78.4349989,8.196669 78.645,7.73 C78.855001,7.263331 79.1116651,6.830002 79.415,6.43 C79.7183348,6.029998 80.064998,5.68500145 80.455,5.395 C80.8450019,5.10499855 81.2749976,4.8766675 81.745,4.71 C82.2150023,4.5433325 82.7199973,4.46 83.26,4.46 C83.7733359,4.46 84.2166648,4.5333326 84.59,4.68 C84.9633352,4.8266674 85.2699988,5.0133322 85.51,5.24 C85.7500012,5.4666678 85.9283327,5.7166653 86.045,5.99 C86.1616672,6.2633347 86.22,6.5233321 86.22,6.77 Z M83.16,5.74 C82.7399979,5.74 82.3533351,5.8266658 82,6 C81.6466649,6.1733342 81.3333347,6.41166515 81.06,6.715 C80.7866653,7.01833485 80.5533343,7.37499795 80.36,7.785 C80.1666657,8.19500205 80.0166672,8.6366643 79.91,9.11 C80.9366718,8.9833327 81.7599969,8.83833415 82.38,8.675 C83.0000031,8.51166585 83.476665,8.33500095 83.81,8.145 C84.143335,7.95499905 84.3633328,7.7500011 84.47,7.53 C84.5766672,7.3099989 84.63,7.0800012 84.63,6.84 C84.63,6.7199994 84.6033336,6.59500065 84.55,6.465 C84.4966664,6.33499935 84.4116672,6.2166672 84.295,6.11 C84.1783327,6.0033328 84.0266676,5.91500035 83.84,5.845 C83.6533324,5.77499965 83.426668,5.74 83.16,5.74 Z M89.72,9.28 L87.29,4.6 L88.88,4.6 C89.013334,4.6 89.108333,4.61833315 89.165,4.655 C89.2216669,4.69166685 89.2733331,4.7566662 89.32,4.85 L91.02,8.33 C91.0533335,8.2566663 91.0883331,8.186667 91.125,8.12 C91.1616668,8.053333 91.2066664,7.9833337 91.26,7.91 L93.55,4.88 C93.6233337,4.7866662 93.6899997,4.7166669 93.75,4.67 C93.8100003,4.6233331 93.8833329,4.6 93.97,4.6 L95.58,4.6 L91.96,9.29 L94.66,14.73 L93.07,14.73 C92.936666,14.73 92.8333337,14.6950004 92.76,14.625 C92.6866663,14.5549997 92.6266669,14.4733338 92.58,14.38 L90.67,10.33 C90.603333,10.4766674 90.5333337,10.6033328 90.46,10.71 L87.7,14.39 C87.633333,14.4833338 87.5600004,14.563333 87.48,14.63 C87.3999996,14.696667 87.3000006,14.73 87.18,14.73 L85.62,14.73 L89.72,9.28 Z M103.14,14.73 L102.22,14.73 C101.986666,14.73 101.828334,14.6700006 101.745,14.55 C101.661666,14.4299994 101.62,14.2833342 101.62,14.11 L101.8,12.06 C101.559999,12.4866688 101.301668,12.8733316 101.025,13.22 C100.748332,13.5666684 100.455002,13.8616655 100.145,14.105 C99.8349985,14.3483346 99.5100017,14.536666 99.17,14.67 C98.8299983,14.803334 98.4766685,14.87 98.11,14.87 C97.709998,14.87 97.3466683,14.7916675 97.02,14.635 C96.6933317,14.4783326 96.4150011,14.2483349 96.185,13.945 C95.9549988,13.6416652 95.7766673,13.2683356 95.65,12.825 C95.5233327,12.3816645 95.46,11.8733362 95.46,11.3 C95.46,10.699997 95.5349992,10.1150029 95.685,9.545 C95.8350007,8.97499715 96.048332,8.4366692 96.325,7.93 C96.6016681,7.4233308 96.9333314,6.95833545 97.32,6.535 C97.7066686,6.11166455 98.1383309,5.74500155 98.615,5.435 C99.0916691,5.12499845 99.6033306,4.88500085 100.15,4.715 C100.696669,4.54499915 101.269997,4.46 101.87,4.46 C102.303336,4.46 102.724998,4.49499965 103.135,4.565 C103.545002,4.63500035 103.949998,4.7566658 104.35,4.93 L103.14,14.73 Z M98.78,13.39 C99.1066683,13.39 99.4266651,13.2883343 99.74,13.085 C100.053335,12.8816657 100.349999,12.6000018 100.63,12.24 C100.910001,11.8799982 101.171665,11.4516692 101.415,10.955 C101.658335,10.4583309 101.873332,9.9133363 102.06,9.32 L102.49,5.84 C102.343333,5.8066665 102.198334,5.78500005 102.055,5.775 C101.911666,5.76499995 101.770001,5.76 101.63,5.76 C101.229998,5.76 100.843335,5.82499935 100.47,5.955 C100.096665,6.08500065 99.7466683,6.2666655 99.42,6.5 C99.0933317,6.7333345 98.796668,7.01166505 98.53,7.335 C98.263332,7.65833495 98.0350009,8.0133314 97.845,8.4 C97.6549991,8.7866686 97.5066672,9.19833115 97.4,9.635 C97.2933328,10.0716689 97.24,10.5199977 97.24,10.98 C97.24,12.5866747 97.7533282,13.39 98.78,13.39 Z M105.79,14.73 L107.01,4.59 L107.9,4.59 C108.300002,4.59 108.5,4.789998 108.5,5.19 L108.36,7 C108.860003,6.1599958 109.406664,5.52500215 110,5.095 C110.593336,4.66499785 111.219997,4.45 111.88,4.45 C112.56667,4.45 113.073332,4.68499765 113.4,5.155 C113.726668,5.62500235 113.89,6.2966623 113.89,7.17 C114.396669,6.2433287 114.964997,5.55833555 115.595,5.115 C116.225003,4.67166445 116.886663,4.45 117.58,4.45 C118.32667,4.45 118.884998,4.6933309 119.255,5.18 C119.625002,5.6666691 119.81,6.3666621 119.81,7.28 C119.81,7.4333341 119.803333,7.5933325 119.79,7.76 C119.776667,7.9266675 119.76,8.0999991 119.74,8.28 L118.98,14.73 L117.23,14.73 L117.99,8.28 C118.03,7.9533317 118.05,7.656668 118.05,7.39 C118.05,6.8899975 117.966667,6.52166785 117.8,6.285 C117.633332,6.04833215 117.353335,5.93 116.96,5.93 C116.673332,5.93 116.386668,6.00166595 116.1,6.145 C115.813332,6.28833405 115.536668,6.49833195 115.27,6.775 C115.003332,7.05166805 114.755001,7.39499795 114.525,7.805 C114.294999,8.21500205 114.090001,8.686664 113.91,9.22 L113.26,14.73 L111.5,14.73 L112.27,8.28 C112.29,8.0999991 112.306667,7.9300008 112.32,7.77 C112.333333,7.6099992 112.34,7.4600007 112.34,7.32 C112.34,6.8466643 112.261667,6.4966678 112.105,6.27 C111.948333,6.0433322 111.673335,5.93 111.28,5.93 C110.959998,5.93 110.651668,6.0099992 110.355,6.17 C110.058332,6.3300008 109.778335,6.56166515 109.515,6.865 C109.251665,7.16833485 109.006668,7.53833115 108.78,7.975 C108.553332,8.41166885 108.346668,8.9033306 108.16,9.45 L107.53,14.73 L105.79,14.73 Z M121.03,18.16 L122.68,4.59 L123.57,4.59 C123.970002,4.59 124.17,4.789998 124.17,5.19 L124,7.35 C124.253335,6.9099978 124.529999,6.51166845 124.83,6.155 C125.130001,5.79833155 125.444998,5.4933346 125.775,5.24 C126.105002,4.9866654 126.449998,4.79166735 126.81,4.655 C127.170002,4.51833265 127.536665,4.45 127.91,4.45 C128.770004,4.45 129.439998,4.7633302 129.92,5.39 C130.400002,6.0166698 130.64,6.9333273 130.64,8.14 C130.64,8.6866694 130.583334,9.2333306 130.47,9.78 C130.356666,10.3266694 130.195001,10.8483309 129.985,11.345 C129.774999,11.8416692 129.521668,12.3049979 129.225,12.735 C128.928332,13.1650022 128.598335,13.5383318 128.235,13.855 C127.871665,14.1716683 127.476669,14.4199991 127.05,14.6 C126.623331,14.7800009 126.176669,14.87 125.71,14.87 C125.209998,14.87 124.753335,14.7716677 124.34,14.575 C123.926665,14.3783324 123.580001,14.0966685 123.3,13.73 L122.76,18.16 L121.03,18.16 Z M127.24,5.88 C126.919998,5.88 126.595002,5.979999 126.265,6.18 C125.934998,6.380001 125.616668,6.6599982 125.31,7.02 C125.003332,7.3800018 124.718335,7.8066642 124.455,8.3 C124.191665,8.7933358 123.963334,9.3299971 123.77,9.91 L123.45,12.49 C123.703335,12.8566685 124.008332,13.1149993 124.365,13.265 C124.721668,13.4150008 125.083331,13.49 125.45,13.49 C125.796668,13.49 126.123332,13.4166674 126.43,13.27 C126.736668,13.1233326 127.016665,12.9250013 127.27,12.675 C127.523335,12.4249988 127.749999,12.1316684 127.95,11.795 C128.150001,11.4583317 128.318333,11.0983353 128.455,10.715 C128.591667,10.3316648 128.696666,9.93500205 128.77,9.525 C128.843334,9.11499795 128.88,8.710002 128.88,8.31 C128.88,7.5166627 128.736668,6.9133354 128.45,6.5 C128.163332,6.0866646 127.760003,5.88 127.24,5.88 Z M131.99,14.73 L133.78,0 L135.53,0 L133.74,14.73 L131.99,14.73 Z M144.67,6.77 C144.67,7.2100022 144.580001,7.61499815 144.4,7.985 C144.219999,8.35500185 143.890002,8.68833185 143.41,8.985 C142.929998,9.28166815 142.270004,9.5399989 141.43,9.76 C140.589996,9.9800011 139.510007,10.156666 138.19,10.29 C138.183333,10.3633337 138.18,10.4349997 138.18,10.505 L138.18,10.72 C138.18,11.6133378 138.374998,12.2949977 138.765,12.765 C139.155002,13.2350024 139.743329,13.47 140.53,13.47 C140.850002,13.47 141.134999,13.436667 141.385,13.37 C141.635001,13.303333 141.858332,13.2216672 142.055,13.125 C142.251668,13.0283329 142.424999,12.9216673 142.575,12.805 C142.725001,12.6883328 142.863333,12.5816672 142.99,12.485 C143.116667,12.3883329 143.233333,12.306667 143.34,12.24 C143.446667,12.173333 143.553333,12.14 143.66,12.14 C143.780001,12.14 143.889999,12.1966661 143.99,12.31 L144.43,12.86 C144.089998,13.2133351 143.758335,13.5149988 143.435,13.765 C143.111665,14.0150013 142.780002,14.2233325 142.44,14.39 C142.099998,14.5566675 141.745002,14.678333 141.375,14.755 C141.004998,14.8316671 140.606669,14.87 140.18,14.87 C139.599997,14.87 139.080002,14.7733343 138.62,14.58 C138.159998,14.3866657 137.770002,14.1116685 137.45,13.755 C137.129998,13.3983316 136.883334,12.9666692 136.71,12.46 C136.536666,11.9533308 136.45,11.3866698 136.45,10.76 C136.45,10.2399974 136.504999,9.72166925 136.615,9.205 C136.725001,8.68833075 136.884999,8.196669 137.095,7.73 C137.305001,7.263331 137.561665,6.830002 137.865,6.43 C138.168335,6.029998 138.514998,5.68500145 138.905,5.395 C139.295002,5.10499855 139.724998,4.8766675 140.195,4.71 C140.665002,4.5433325 141.169997,4.46 141.71,4.46 C142.223336,4.46 142.666665,4.5333326 143.04,4.68 C143.413335,4.8266674 143.719999,5.0133322 143.96,5.24 C144.200001,5.4666678 144.378333,5.7166653 144.495,5.99 C144.611667,6.2633347 144.67,6.5233321 144.67,6.77 Z M141.61,5.74 C141.189998,5.74 140.803335,5.8266658 140.45,6 C140.096665,6.1733342 139.783335,6.41166515 139.51,6.715 C139.236665,7.01833485 139.003334,7.37499795 138.81,7.785 C138.616666,8.19500205 138.466667,8.6366643 138.36,9.11 C139.386672,8.9833327 140.209997,8.83833415 140.83,8.675 C141.450003,8.51166585 141.926665,8.33500095 142.26,8.145 C142.593335,7.95499905 142.813333,7.7500011 142.92,7.53 C143.026667,7.3099989 143.08,7.0800012 143.08,6.84 C143.08,6.7199994 143.053334,6.59500065 143,6.465 C142.946666,6.33499935 142.861667,6.2166672 142.745,6.11 C142.628333,6.0033328 142.476668,5.91500035 142.29,5.845 C142.103332,5.77499965 141.876668,5.74 141.61,5.74 Z M152.31,6.22 C152.256666,6.3000004 152.203334,6.35833315 152.15,6.395 C152.096666,6.43166685 152.03,6.45 151.95,6.45 C151.856666,6.45 151.755001,6.4133337 151.645,6.34 C151.534999,6.2666663 151.401667,6.18500045 151.245,6.095 C151.088333,6.00499955 150.896668,5.92166705 150.67,5.845 C150.443332,5.76833295 150.170002,5.73 149.85,5.73 C149.549999,5.73 149.276668,5.77166625 149.03,5.855 C148.783332,5.93833375 148.570001,6.0533326 148.39,6.2 C148.209999,6.3466674 148.071667,6.51833235 147.975,6.715 C147.878333,6.91166765 147.83,7.1199989 147.83,7.34 C147.83,7.6533349 147.933332,7.9033324 148.14,8.09 C148.346668,8.2766676 148.606665,8.43833265 148.92,8.575 C149.233335,8.71166735 149.571665,8.8433327 149.935,8.97 C150.298335,9.0966673 150.636665,9.2566657 150.95,9.45 C151.263335,9.6433343 151.523332,9.8899985 151.73,10.19 C151.936668,10.4900015 152.04,10.8799976 152.04,11.36 C152.04,11.826669 151.948334,12.2733312 151.765,12.7 C151.581666,13.1266688 151.318335,13.501665 150.975,13.825 C150.631665,14.148335 150.218336,14.4066657 149.735,14.6 C149.251664,14.7933343 148.710003,14.89 148.11,14.89 C147.46333,14.89 146.891669,14.7750012 146.395,14.545 C145.898331,14.3149989 145.493335,14.0200018 145.18,13.66 L145.62,12.98 C145.673334,12.8933329 145.736666,12.8266669 145.81,12.78 C145.883334,12.7333331 145.976666,12.71 146.09,12.71 C146.196667,12.71 146.303333,12.7566662 146.41,12.85 C146.516667,12.9433338 146.649999,13.0483328 146.81,13.165 C146.970001,13.2816673 147.171665,13.3866662 147.415,13.48 C147.658335,13.5733338 147.966665,13.62 148.34,13.62 C148.666668,13.62 148.961665,13.5700005 149.225,13.47 C149.488335,13.3699995 149.711666,13.2366675 149.895,13.07 C150.078334,12.9033325 150.218333,12.7083345 150.315,12.485 C150.411667,12.2616656 150.46,12.0233346 150.46,11.77 C150.46,11.4299983 150.356668,11.160001 150.15,10.96 C149.943332,10.759999 149.683335,10.593334 149.37,10.46 C149.056665,10.326666 148.720002,10.2016673 148.36,10.085 C147.999998,9.96833275 147.663335,9.81833425 147.35,9.635 C147.036665,9.45166575 146.776668,9.2133348 146.57,8.92 C146.363332,8.6266652 146.26,8.2366691 146.26,7.75 C146.26,7.3233312 146.344999,6.91166865 146.515,6.515 C146.685001,6.11833135 146.929998,5.7666682 147.25,5.46 C147.570002,5.1533318 147.958331,4.90833425 148.415,4.725 C148.871669,4.54166575 149.386664,4.45 149.96,4.45 C150.56667,4.45 151.101664,4.55166565 151.565,4.755 C152.028336,4.95833435 152.426665,5.2333316 152.76,5.58 L152.31,6.22 Z" id="Logo--examples" fill-rule="nonzero"></path>
                </g>
                <g id="Logo--DNA">
                    <g id="Logo--science-(2)" fill="#FDFDFD" fill-rule="nonzero">
                        <path d="M12.2097341,23.6449139 C9.90893051,20.6155929 7.6273376,17.5482107 5.76881597,14.5600424 C3.5521745,10.9960819 1.35811512,5.40866161 1.35811512,1.17198988 C1.35811512,-0.192931528 3.17972982,-0.192830789 3.17972982,1.17198988 C3.17972982,7.42314788 8.39078949,15.4553782 13.3353902,22.1355273 C18.2622031,15.4529946 23.3861032,7.40931137 23.3861032,1.15802593 C23.3861032,-0.206794746 25.0422851,-0.206895485 25.0422851,1.15802593 C25.0422851,9.20808827 19.5683674,16.5641043 14.31351,23.4451325 C14.5465703,23.7546165 14.7781977,24.0605506 15.0077976,24.3625945 C20.652643,31.7886172 25.5686865,38.7305585 25.5686865,47.5287558 C25.5685976,48.8935765 24.136763,48.8935765 24.136763,47.5287558 C24.136763,40.5650273 19.5274729,33.2679072 14.1661951,26.2150241 C13.8402394,25.7862229 13.5123296,25.3559616 13.1836472,24.9245834 C13.0750938,25.0669943 12.9668156,25.2092051 12.8588642,25.3512173 C7.49758641,32.4041004 2.53749207,40.5650273 2.53749207,47.5287558 C2.53749207,48.8935765 1.10565747,48.8935765 1.10556853,47.5287558 C1.10556853,38.7305585 6.02161199,31.7886172 11.6664574,24.3625945 C11.8465179,24.1257209 12.027703,23.886439 12.2097341,23.6449139 Z" id="Logo--Combined-Shape"></path>
                    </g>
                    <g id="Logo--TopPairs" transform="translate(14.406780, 36.016949) scale(1, -1) translate(-14.406780, -36.016949) translate(4.237288, 26.271186)" stroke="#FDFDFD">
                        <g id="Logo--BasePair" transform="translate(11.584315, 1.694915) scale(-1, 1) translate(-11.584315, -1.694915) translate(3.533467, 0.000000)">
                            <path d="M0.0842132732,1.28732849 L13.4282309,1.28732849" id="Logo--Line" stroke-width="2" stroke-linecap="square"></path>
                            <ellipse id="Logo--Oval" cx="14.9075411" cy="1.28732849" rx="1.14673393" ry="1.28732849"></ellipse>
                        </g>
                        <g id="Logo--BasePair-Copy" transform="translate(-0.000000, 4.237288)">
                            <path d="M0.270674931,2.13478612 L11.2918965,2.13478612" id="Logo--Line" stroke-width="2" stroke-linecap="square"></path>
                            <ellipse id="Logo--Oval" cx="12.7673515" cy="2.13478612" rx="1.14673393" ry="1.28732849"></ellipse>
                        </g>
                        <g id="Logo--BasePair-Copy" transform="translate(4.366561, 13.761098)">
                            <path d="M0.710376446,2.13478612 L3.42677489,2.13478612" id="Logo--Line" stroke-width="2" stroke-linecap="square"></path>
                            <ellipse id="Logo--Oval" cx="4.90608509" cy="2.13478612" rx="1.14673393" ry="1.28732849"></ellipse>
                        </g>
                        <g id="Logo--BasePair" transform="translate(10.650675, 11.016949) scale(-1, 1) translate(-10.650675, -11.016949) translate(5.142201, 9.322034)">
                            <path d="M0.0452935345,1.28732849 L8.00643039,1.28732849" id="Logo--Line" stroke-width="2" stroke-linecap="square"></path>
                            <ellipse id="Logo--Oval" cx="9.4857406" cy="1.28732849" rx="1.14673393" ry="1.28732849"></ellipse>
                        </g>
                    </g>
                    <g id="Logo--TopPairs" transform="translate(4.237288, 1.694915)" stroke="#FDFDFD">
                        <g id="Logo--BasePair" transform="translate(11.584315, 1.694915) scale(-1, 1) translate(-11.584315, -1.694915) translate(3.533467, 0.000000)">
                            <path d="M0.0842132732,1.28732849 L13.4282309,1.28732849" id="Logo--Line" stroke-width="2" stroke-linecap="square"></path>
                            <ellipse id="Logo--Oval" cx="14.9075411" cy="1.28732849" rx="1.14673393" ry="1.28732849"></ellipse>
                        </g>
                        <g id="Logo--BasePair-Copy" transform="translate(-0.000000, 4.237288)">
                            <path d="M0.270674931,2.13478612 L11.2918965,2.13478612" id="Logo--Line" stroke-width="2" stroke-linecap="square"></path>
                            <ellipse id="Logo--Oval" cx="12.7673515" cy="2.13478612" rx="1.14673393" ry="1.28732849"></ellipse>
                        </g>
                        <g id="Logo--BasePair-Copy" transform="translate(4.366561, 13.761098)">
                            <path d="M0.710376446,2.13478612 L3.42677489,2.13478612" id="Logo--Line" stroke-width="2" stroke-linecap="square"></path>
                            <ellipse id="Logo--Oval" cx="4.90608509" cy="2.13478612" rx="1.14673393" ry="1.28732849"></ellipse>
                        </g>
                        <g id="Logo--BasePair" transform="translate(10.650675, 11.016949) scale(-1, 1) translate(-10.650675, -11.016949) translate(5.142201, 9.322034)">
                            <path d="M0.0452935345,1.28732849 L8.00643039,1.28732849" id="Logo--Line" stroke-width="2" stroke-linecap="square"></path>
                            <ellipse id="Logo--Oval" cx="9.4857406" cy="1.28732849" rx="1.14673393" ry="1.28732849"></ellipse>
                        </g>
                    </g>
                </g>
            </g>
        </g>
    </g>
</svg>